#!OML:ASF F:\VICON\USERDATA\INSTALL\rory3\rory3.ASF
:FULLY-SPECIFIED
:DEGREES
46
root 0.9448699763531035 17.780397505489383 13.519655877882304 4.1543216258535764 -10.033753677063654 -1.7558853061451605
lfemur -4.262909711816636 5.9874449727635275 -19.927216640656116
ltibia 93.00062783687562
lfoot 15.667418754096701 -11.710733001371016
ltoes -9.040875342694365
rfemur -30.525911708149938 0.34774354656234774 29.390036998234407
rtibia 49.81346474975248
rfoot -13.321768251429663 -3.7756348335016994
rtoes 6.504174745770506
lowerback 14.231828686022014 -0.07112734720995717 0.3281437249749857
upperback -0.5374311525999409 0.13535410896378863 2.2737849171979065
thorax -9.044797181280218 0.12107819950396859 2.1655840917287676
lowerneck -19.04666921725295 -2.814976670140995 -2.728863724788237
upperneck 8.987507807334106 -3.4394940209900358 3.647344539010758
head 6.007587179627323 -1.4932984442225106 1.2730943235264687
lclavicle -1.543141627517893e-15 -3.295263908605492e-15
lhumerus -46.442426380154615 -9.817513568523488 92.81470222113707
lradius 110.46351452849318
lwrist 30.823750105030143
lhand -25.750518906618264 2.0478455341507944
lfingers 7.12502
lthumb 1.0438626784095537 32.01177047639439
rclavicle -1.5484483582976903e-15 -3.298233207227711e-15
rhumerus -56.06615228342477 5.438180999845426 -95.08165967240052
rradius 111.13958823937308
rwrist -20.93499170669542
rhand -17.301086082612102 37.60944544252799
rfingers 7.12502
rthumb 8.019139590623096 11.85889712191602
47
root 0.9054867764457089 17.601319459115786 14.408173043407569 4.067821835933358 -10.657320971059068 -3.2629809125280085
lfemur -8.146081217614864 9.147618351384912 -16.126919332140947
ltibia 100.21081746151255
lfoot 12.979561983302943 -10.476019268660268
ltoes -6.524504824650048
rfemur -29.670435155847095 3.0229042130426116 30.879547879639208
rtibia 56.288111168178105
rfoot -17.115797840917182 -7.796971735576125
rtoes 4.454075538751245
lowerback 14.79017671797875 0.24406081634961274 1.4224951692302863
upperback -0.5152509799084265 0.7505136533406467 2.7384567796439274
thorax -9.076977461299917 0.3590360995064578 1.750010220283103
lowerneck -19.44490919931642 -2.9278792204115787 -2.6639244549737158
upperneck 8.991609041746557 -3.575276255981778 3.4502182565441153
head 6.101185230572529 -1.5734246185800922 1.1405561488273799
lclavicle -1.5433338368137398e-15 -3.2954036578568874e-15
lhumerus -48.31082359936025 -9.58108467014264 93.08760321626862
lradius 109.84974369680054
lwrist 31.545445501700353
lhand -25.788904562581372 2.954171637564315
lfingers 7.12502
lthumb 0.8258647443908279 32.72072698970514
rclavicle -1.5477203509962853e-15 -3.2977451187949685e-15
rhumerus -53.55145647233905 6.183570821700621 -95.33875782547136
rradius 110.57062021380196
rwrist -21.08807473602798
rhand -17.301651880204947 37.623724805400535
rfingers 7.12502
rthumb 7.827349714317848 11.39216765032833
48
root 0.8783125658172688 17.449736113184084 15.357127300942025 4.803851473136081 -10.550467513318226 -5.55314155380114
lfemur -12.713456049214072 11.377043121869661 -11.36590053167109
ltibia 105.58343052594671
lfoot 10.460394924375672 -9.532174737799915
ltoes -4.22269324875009
rfemur -28.703511190645052 6.119553361893322 33.143562843000176
rtibia 60.66577737148269
rfoot -19.78548434122213 -11.81167195464525
rtoes 2.0447119415214763
lowerback 14.864773431875582 0.3371477952759238 3.455796186450917
upperback -0.5217882179219138 1.3210285905355883 3.35564171011879
thorax -9.397059070068746 0.5729895676119056 1.3044724456048837
lowerneck -19.659662840043904 -3.0907279925226754 -2.5934084354554745
upperneck 8.925023224577302 -3.7811655050880213 3.2892138120580414
head 6.14721926759948 -1.681918551482495 1.0158921945092048
lclavicle -1.5439663379650303e-15 -3.2958631106734337e-15
lhumerus -50.435729114616144 -9.389029184738376 93.2635244290901
lradius 109.9598075868609
lwrist 32.191298930253616
lhand -25.48614473376623 3.696571456432925
lfingers 7.12502
lthumb 0.9157399205397525 33.260417447713614
rclavicle -1.5487637621769984e-15 -3.2984993117861416e-15
rhumerus -50.84265057913327 7.299024592673082 -95.59197935327306
rradius 110.43243581109171
rwrist -21.34293917314359
rhand -17.207707104341704 37.723544910678854
rfingers 7.12502
rthumb 7.666040362161512 11.0575403160027
49
root 0.8663732098318203 17.372352513692594 16.413014619746694 5.1655799159701505 -8.959822477812777 -5.679133538356444
lfemur -17.68959875739908 11.175824239904685 -10.293928833973798
ltibia 108.61745382337381
lfoot 7.834306331039999 -8.557945141611617
ltoes -3.20673690024584
rfemur -27.819377647660907 7.400234028531845 33.26639148694938
rtibia 63.593930940889265
rfoot -21.465411558996898 -14.93805350158931
rtoes -0.45237743478929726
lowerback 14.702297869568572 0.2765073870996333 3.6177499793723413
upperback -0.4529570849008918 1.3179326674898713 3.494815261480949
thorax -9.715758521831333 0.5543624430776151 1.110536986746903
lowerneck -19.773711684967452 -3.330315564943004 -2.54658350039713
upperneck 8.800010366383985 -4.1017598960257295 3.2286937929319546
head 6.172730935439872 -1.8340761237500571 0.9223092477260593
lclavicle -1.5439379544929541e-15 -3.2958423170392917e-15
lhumerus -52.33629213669405 -9.08748011344767 93.44359354679159
lradius 110.46295736686707
lwrist 32.3753499597508
lhand -24.90956650780013 4.172236237125967
lfingers 7.12502
lthumb 1.3405541608140754 33.57007959041433
rclavicle -1.54964069580041e-15 -3.2991663332051066e-15
rhumerus -47.974458070659956 8.773644629685911 -95.75783840420334
rradius 110.80349991048615
rwrist -21.683724861236204
rhand -17.1039850822455 37.836397418961695
rfingers 7.12502
rthumb 7.615980137005356 10.804721222793475
50
root 0.8007008559546094 17.316062882394462 17.206902509341095 5.261714919419462 -8.711559484520121 -7.198824844467375
lfemur -22.15792028161426 12.71697542774886 -7.7435369675232995
ltibia 109.57931391504013
lfoot 5.128160201603327 -7.356997458732108
ltoes -3.784833494679848
rfemur -25.714057085409664 9.587822823322577 35.01028666264798
rtibia 64.7157408223976
rfoot -22.354052345031263 -16.748812684171654
rtoes -2.869679350299238
lowerback 15.17913469433454 0.5451826346909292 4.608606999293792
upperback -0.6225809271027799 1.8394506006315563 3.6032305069091963
thorax -9.870615029694827 0.7628372958842358 0.8004588820877794
lowerneck -19.86261037641759 -3.6505428055236524 -2.5108786777968755
upperneck 8.616162706869948 -4.558543893944046 3.2663669586120854
head 6.171840362883136 -2.0494095277216533 0.8517184835002918
lclavicle -1.54371665070217e-15 -3.2956815107369417e-15
lhumerus -54.37025836332642 -8.73692700233429 93.3608812267172
lradius 111.45932052565792
lwrist 32.0253614297616
lhand -24.306741751800327 4.3601965428955936
lfingers 7.12502
lthumb 1.8932850477594292 33.737133548166724
rclavicle -1.5489985841846947e-15 -3.298626969967236e-15
rhumerus -45.119016879600146 10.442699331717323 -95.7539410279636
rradius 111.7493332687778
rwrist -22.242540711714728
rhand -17.019765190640758 37.938697195981014
rfingers 7.12502
rthumb 7.5924995281299745 10.483298898254528
51
root 0.8229750034144877 17.381708241602652 18.101933654789697 5.612675617572748 -6.190003604839218 -5.831700407398321
lfemur -26.941472271998652 10.338251149410546 -9.971886328940816
ltibia 108.70211464106814
lfoot 2.7522698195470356 -6.037522982065239
ltoes -5.968762710898482
rfemur -24.068589383883413 8.715313968550282 33.81123134868587
rtibia 64.5103025705106
rfoot -22.24013116568578 -17.332115153780492
rtoes -4.734659699846908
lowerback 14.333076556022005 0.4145797898595668 3.8327477331351116
upperback -0.5236093726955359 1.489788897734803 3.2616106464805803
thorax -9.75420052686239 0.6096628090125796 0.750028045560371
lowerneck -20.008795363821488 -4.03116502929505 -2.5004061249456795
upperneck 8.44079877095941 -5.116090625722986 3.4317800255111717
head 6.1752185531364905 -2.3113784504741015 0.827875235569936
lclavicle -1.543449335331964e-15 -3.29548721842038e-15
lhumerus -57.07972968187444 -8.520002787476107 92.83203626600843
lradius 113.05569365964537
lwrist 31.50547766106411
lhand -23.965329961293698 4.34606559149639
lfingers 7.12502
lthumb 2.2496201351120906 33.79480563432876
rclavicle -1.5473817977475652e-15 -3.29743328957333e-15
rhumerus -42.50051493058977 12.10434819111207 -95.50814374737071
rradius 113.23025341551583
rwrist -22.91390809829737
rhand -16.862746143428225 37.909223487685864
rfingers 7.12502
rthumb 7.697397549958064 10.302849186960369
52
root 0.8529480981445842 17.50012626620057 19.220689273382636 6.274119097091998 -5.338019193647673 -5.677142335086659
lfemur -30.879780571302096 9.735126060567332 -10.829346090575134
ltibia 106.37579966055583
lfoot 1.0014212093914363 -4.9200026160565224
ltoes -9.225045704796855
rfemur -21.85217722731442 9.28245429241062 33.85183013517211
rtibia 63.24053908947565
rfoot -20.65100604704715 -16.86553478700202
rtoes -6.998090761489777
lowerback 13.275896856421829 0.7175403696897911 3.922406301619956
upperback -0.7724868694517096 1.8235073199721148 2.939163412234347
thorax -9.587014667980494 0.7670434671450208 0.4091805283616492
lowerneck -20.0270483627206 -4.443934128900367 -2.5302714316790036
upperneck 8.241215131472849 -5.732113362575273 3.74951635319382
head 6.1509409817789935 -2.6010783915301148 0.8685393899746647
lclavicle -1.543722286431062e-15 -3.2956856725854866e-15
lhumerus -58.283337733239186 -7.629350010097827 92.5247589325406
lradius 114.1883031524718
lwrist 31.263963681347406
lhand -23.996324861052038 4.22752029501688
lfingers 7.12502
lthumb 2.3141106536231106 33.85521099317228
rclavicle -1.5459478314268143e-15 -3.296405247723676e-15
rhumerus -40.37434775248527 13.585283628374178 -95.01607055418162
rradius 115.1367664983253
rwrist -23.482393056064748
rhand -16.74085077223815 37.78385674716661
rfingers 7.12502
rthumb 7.883508228258376 10.189844329642645
